<svg width="20" height="20" viewBox="0 0 20 20" fill="none" xmlns="http://www.w3.org/2000/svg"><path d="M14.2906 0.718597C17.2221 0.790033 19.5406 3.22435 19.4692 6.1558L19.2622 14.6484C19.1908 17.5798 16.7564 19.8983 13.825 19.8269L5.33243 19.6199C2.40099 19.5485 0.082495 17.1141 0.153931 14.1827L0.360887 5.69014C0.432323 2.7587 2.86664 0.440205 5.79809 0.511641L14.2906 0.718597ZM9.91502 5.92297C7.56986 5.86582 5.62241 7.72062 5.56526 10.0658C5.50811 12.4109 7.36291 14.3584 9.70806 14.4155C12.0532 14.4727 14.0007 12.6178 14.0578 10.2727C14.115 7.92757 12.2601 5.98012 9.91502 5.92297ZM9.86328 8.04611C11.0359 8.07469 11.9633 9.04838 11.9347 10.221C11.9061 11.3936 10.9324 12.321 9.7598 12.2924C8.58719 12.2638 7.65983 11.2901 7.6884 10.1175C7.71698 8.9449 8.69067 8.01754 9.86328 8.04611ZM14.7309 4.44703C14.1446 4.43274 13.6577 4.89644 13.6434 5.48273C13.6292 6.06901 14.0928 6.55588 14.6792 6.57017C15.2655 6.58446 15.7523 6.12075 15.7666 5.53447C15.7809 4.94818 15.3172 4.46132 14.7309 4.44703Z" fill="url(#paint0_linear_1921_1510)"></path><defs><linearGradient id="paint0_linear_1921_1510" x1="18.7656" y1="19.9473" x2="0.122974" y2="0.373343" gradientUnits="userSpaceOnUse"><stop stop-color="#FBE18A"></stop><stop offset="0.21" stop-color="#FCBB45"></stop><stop offset="0.38" stop-color="#F75274"></stop><stop offset="0.52" stop-color="#D53692"></stop><stop offset="0.74" stop-color="#8F39CE"></stop><stop offset="1" stop-color="#5B4FE9"></stop></linearGradient></defs></svg>