<svg width="21" height="19" viewBox="0 0 21 19" fill="none" xmlns="http://www.w3.org/2000/svg"><path d="M2.45457 1.25887C2.84121 1.21585 3.2198 1.39079 3.43762 1.7131C4.97011 3.98085 6.82006 4.93057 8.87709 5.1552C8.9827 4.27524 9.22486 3.4065 9.6755 2.64289C10.3365 1.52251 11.4064 0.700711 12.9302 0.402947C15.0356 -0.00850654 16.6331 0.76157 17.5575 1.69928L19.4349 1.35848C19.836 1.28569 20.2427 1.45227 20.4775 1.7854C20.7122 2.11853 20.7323 2.55764 20.5289 2.91081L18.7125 6.06467C18.8528 10.6307 17.5675 13.81 14.8511 15.9908C13.4102 17.1475 11.3536 17.7972 9.09885 17.9893C6.82647 18.1829 4.26034 17.921 1.712 17.1623C1.26492 17.0293 0.959857 16.6164 0.963951 16.15C0.968035 15.6835 1.28028 15.276 1.72962 15.1508C3.01504 14.7925 3.99359 14.482 4.87954 13.9356C3.62857 13.263 2.70881 12.3875 2.05981 11.3914C1.15778 10.007 0.828664 8.46719 0.768983 7.07962C0.709312 5.6922 0.916479 4.40854 1.13244 3.48243C1.25538 2.95524 1.39852 2.4257 1.59464 1.92015C1.73708 1.55579 2.06795 1.3019 2.45457 1.25887Z" fill="#33CCFF"></path></svg>