<svg width="24" height="18" viewBox="0 0 24 18" fill="none" xmlns="http://www.w3.org/2000/svg"><path fill-rule="evenodd" clip-rule="evenodd" d="M11.852 0.390839C12.8077 0.390839 13.7866 0.415439 14.7363 0.454226L15.8586 0.506915L16.9326 0.569226L17.9383 0.637159L18.8555 0.706719C20.909 0.870381 22.5593 2.43118 22.76 4.46302L22.8045 4.92887L22.8883 5.92735C22.9666 6.96236 23.0245 8.09097 23.0245 9.16925C23.0245 10.2475 22.9666 11.3761 22.8883 12.4111L22.8045 13.4096C22.7898 13.5691 22.775 13.7246 22.76 13.8755C22.5593 15.9073 20.909 17.4681 18.8555 17.6317L17.9383 17.7013L16.9326 17.7692L15.8586 17.8316L14.7363 17.8843C13.7866 17.9231 12.8077 17.9477 11.852 17.9477C10.8963 17.9477 9.91731 17.9231 8.9676 17.8843L7.84534 17.8316L6.7713 17.7692L5.76562 17.7013L4.84847 17.6317C2.79497 17.4681 1.14467 15.9073 0.943875 13.8755L0.899454 13.4096L0.815662 12.4111C0.737312 11.3761 0.679443 10.2475 0.679443 9.16925C0.679443 8.09097 0.737312 6.96236 0.815662 5.92735L0.899454 4.92887C0.914096 4.76943 0.928961 4.61393 0.943875 4.46302C1.14467 2.43118 2.79497 0.870381 4.84847 0.706719L5.76562 0.637159L6.7713 0.569226L7.84534 0.506915L8.9676 0.454226C9.91731 0.415439 10.8963 0.390839 11.852 0.390839ZM9.61746 6.50844V11.8301C9.61746 12.3369 10.1761 12.6536 10.623 12.4003L15.3154 9.73941C15.7623 9.48604 15.7623 8.85246 15.3154 8.59909L10.623 5.93826C10.1761 5.68485 9.61746 6.00162 9.61746 6.50844Z" fill="#FF0000"></path></svg>